# xmcd
#
# Track frame offsets: 
#        150
#        18494
#        36646
#        54766
#
# Disc length: 973 seconds
#
# Revision: 0
# Processed by: cddbd v1.5.2PL0 Copyright (c) Steve Scherf et al.
# Submitted via: ExactAudioCopy v0.95b4
#
DISCID=2c03cb04
DTITLE=Nicole Scherzinger - Supervillian
DYEAR=2007
DGENRE=Pop
TTITLE0=Supervillian (LP Version)
TTITLE1=Supervillian (Club Mix)
TTITLE2=Supervillian (INST)
TTITLE3=Supervillian (Acapella)
EXTD=
EXTT0=
EXTT1=
EXTT2=
EXTT3=
PLAYORDER=
